<?xml version="1.0" encoding="utf-8"?>
<!-- Generator: Adobe Illustrator 27.5.0, SVG Export Plug-In . SVG Version: 6.00 Build 0)  -->
<svg version="1.1" xmlns="http://www.w3.org/2000/svg" xmlns:xlink="http://www.w3.org/1999/xlink" x="0px" y="0px"
	 viewBox="0 0 500 500" style="enable-background:new 0 0 500 500;" xml:space="preserve">
<g id="Background_Simple">
	<g>
		<path style="fill:#92E3A9;" d="M156.866,466.822c0,0-89.36-33.924-130.73-139.004s107.563-178.72,105.908-194.44
			S26.136,109.383,88.191,58.911c62.055-50.472,279.663-56.264,359.094,52.127s-3.31,143.969-11.584,162.999
			c-8.274,19.03,73.639,26.477,16.548,124.111S222.231,493.299,156.866,466.822z"/>
		<path style="opacity:0.7;fill:#FFFFFF;" d="M156.866,466.822c0,0-89.36-33.924-130.73-139.004s107.563-178.72,105.908-194.44
			S26.136,109.383,88.191,58.911c62.055-50.472,279.663-56.264,359.094,52.127s-3.31,143.969-11.584,162.999
			c-8.274,19.03,73.639,26.477,16.548,124.111S222.231,493.299,156.866,466.822z"/>
	</g>
</g>
<g id="Leaves_3">
	<g>
		<path style="fill:none;stroke:#263238;stroke-miterlimit:10;" d="M283.391,64.43l6.623-0.745c0,0,22.268-11.065,37.74-14.68
			c15.472-3.614,55.01-7.923,73.647,1.342c18.637,9.266,45.329,36.66,53.115,47.126c7.785,10.466,15.666,14.945,16.552,16.857
			c0.886,1.912-9.889,2.395-15.395,2.895c-5.506,0.501-37.856,15.758-60.76,7.308c-22.905-8.45-51.239-27.296-61.2-32.725
			c-9.96-5.428-31.601-17.197-35.484-19.975c-3.883-2.779-6.322-3.767-8.439-4.357c-2.118-0.59-8.266-0.885-8.266-0.885
			S276.768,65.175,283.391,64.43z"/>
		<path style="fill:none;stroke:#263238;stroke-miterlimit:10;" d="M290.739,65.399c0,0,42.401,2.904,61.5,7.857
			c19.099,4.953,110.076,37.958,111.038,39.151"/>
		<path style="fill:none;stroke:#263238;stroke-miterlimit:10;" d="M321.214,61.734c3.509-3.51,8.035-7.78,10.307-8.871
			c4.024-1.932,11.757-4.557,11.757-4.557"/>
		<path style="fill:none;stroke:#263238;stroke-miterlimit:10;" d="M316.409,66.693c0,0,0.923-0.99,2.333-2.446"/>
		<path style="fill:none;stroke:#263238;stroke-miterlimit:10;" d="M350.816,87.946c4.569,6.308,10.877,14.129,10.877,14.129"/>
		<path style="fill:none;stroke:#263238;stroke-miterlimit:10;" d="M375.262,51.729c0,0-12.687,1.368-18.18,5.142
			S340.211,70.15,340.211,70.15s3.687,7.3,7.638,13.47"/>
		<path style="fill:none;stroke:#263238;stroke-miterlimit:10;" d="M332.758,85.581c2.852,3.299,5.183,5.773,5.183,5.773"/>
		<path style="fill:none;stroke:#263238;stroke-miterlimit:10;" d="M323.083,68.862c0,0,1.945,7.297,6.117,12.469
			c0.363,0.45,0.729,0.897,1.094,1.339"/>
		<path style="fill:none;stroke:#263238;stroke-miterlimit:10;" d="M349.406,53.868c7.771-2.985,10.281-4.352,10.281-4.352"/>
		<path style="fill:none;stroke:#263238;stroke-miterlimit:10;" d="M325.997,68.81c0,0,10.353-7.916,18.398-12.474"/>
		<path style="fill:none;stroke:#263238;stroke-miterlimit:10;" d="M318.083,56.149c0,0-6.892,3.261-10.627,7.586"/>
		<path style="fill:none;stroke:#263238;stroke-miterlimit:10;" d="M306.436,68.17c0,0,0.7,5.346,3.633,10.203"/>
		<path style="fill:none;stroke:#263238;stroke-miterlimit:10;" d="M356.32,75.873c0,0,10.565,26.94,25.269,40.692"/>
		<path style="fill:none;stroke:#263238;stroke-miterlimit:10;" d="M370.663,63.828c8.411-5.624,19.534-11.857,27.87-12.151"/>
		<path style="fill:none;stroke:#263238;stroke-miterlimit:10;" d="M358.463,72.831c0,0,3.454-2.878,8.581-6.511"/>
		<path style="fill:none;stroke:#263238;stroke-miterlimit:10;" d="M406.653,63.792c-9.039,1.333-24.201,4.797-34.322,13.615"/>
		<path style="fill:none;stroke:#263238;stroke-miterlimit:10;" d="M414.224,62.989c0,0-1.474,0.063-3.927,0.333"/>
		<path style="fill:none;stroke:#263238;stroke-miterlimit:10;" d="M378.852,93.16c5.558,9.444,14.834,22.497,26.95,29.814"/>
		<path style="fill:none;stroke:#263238;stroke-miterlimit:10;" d="M372.948,81.834c0,0,1.406,3.269,4.054,8.078"/>
		<path style="fill:none;stroke:#263238;stroke-miterlimit:10;" d="M415.035,116.558c2.963,2.222,6.115,4.134,9.403,5.504"/>
		<path style="fill:none;stroke:#263238;stroke-miterlimit:10;" d="M391.296,88.706c0,0,7.96,14.159,19.786,24.621"/>
		<path style="fill:none;stroke:#263238;stroke-miterlimit:10;" d="M425.376,76.621c2.678,0.347,5.386,1.003,8.069,2.057"/>
		<path style="fill:none;stroke:#263238;stroke-miterlimit:10;" d="M392.637,84.669c0,0,13.151-8.561,28.386-8.354"/>
		<path style="fill:none;stroke:#263238;stroke-miterlimit:10;" d="M442.944,88.42c0,0-13.047,1.329-22.326,6.515"/>
		<path style="fill:none;stroke:#263238;stroke-miterlimit:10;" d="M417.878,98.459c0,0,6.187,10.113,21.23,18.994"/>
	</g>
	<g>
		<path style="fill:none;stroke:#263238;stroke-miterlimit:10;" d="M39.27,433.776l5.276-0.593c0,0,17.739-8.815,30.065-11.694
			c12.326-2.879,43.822-6.312,58.669,1.069c14.847,7.381,36.11,29.204,42.312,37.542c6.202,8.338,12.48,11.906,13.186,13.429
			c0.706,1.523-7.878,1.908-12.264,2.307c-4.386,0.399-30.157,12.553-48.403,5.821c-18.246-6.732-40.818-21.745-48.753-26.069
			c-7.935-4.324-25.174-13.699-28.267-15.913s-5.036-3-6.723-3.471c-1.687-0.47-6.585-0.705-6.585-0.705
			S33.994,434.37,39.27,433.776z"/>
		<path style="fill:none;stroke:#263238;stroke-miterlimit:10;" d="M45.124,434.548c0,0,33.777,2.313,48.992,6.259
			c15.215,3.946,87.688,30.238,88.455,31.189"/>
		<path style="fill:none;stroke:#263238;stroke-miterlimit:10;" d="M69.401,431.628c2.795-2.796,6.401-6.198,8.211-7.067
			c3.205-1.539,9.366-3.63,9.366-3.63"/>
		<path style="fill:none;stroke:#263238;stroke-miterlimit:10;" d="M65.573,435.579c0,0,0.735-0.789,1.858-1.949"/>
		<path style="fill:none;stroke:#263238;stroke-miterlimit:10;" d="M92.983,452.51c3.639,5.025,8.665,11.256,8.665,11.256"/>
		<path style="fill:none;stroke:#263238;stroke-miterlimit:10;" d="M112.457,423.659c0,0-10.107,1.09-14.483,4.096
			c-4.376,3.006-13.439,10.578-13.439,10.578s2.937,5.815,6.085,10.73"/>
		<path style="fill:none;stroke:#263238;stroke-miterlimit:10;" d="M78.598,450.625c2.272,2.628,4.129,4.599,4.129,4.599"/>
		<path style="fill:none;stroke:#263238;stroke-miterlimit:10;" d="M70.89,437.306c0,0,1.549,5.813,4.873,9.933
			c0.289,0.358,0.58,0.715,0.872,1.067"/>
		<path style="fill:none;stroke:#263238;stroke-miterlimit:10;" d="M91.86,425.362c6.191-2.378,8.19-3.467,8.19-3.467"/>
		<path style="fill:none;stroke:#263238;stroke-miterlimit:10;" d="M73.211,437.265c0,0,8.247-6.306,14.656-9.937"/>
		<path style="fill:none;stroke:#263238;stroke-miterlimit:10;" d="M66.907,427.179c0,0-5.49,2.597-8.465,6.043"/>
		<path style="fill:none;stroke:#263238;stroke-miterlimit:10;" d="M57.629,436.755c0,0,0.558,4.258,2.894,8.128"/>
		<path style="fill:none;stroke:#263238;stroke-miterlimit:10;" d="M97.367,442.892c0,0,8.416,21.461,20.13,32.416"/>
		<path style="fill:none;stroke:#263238;stroke-miterlimit:10;" d="M108.793,433.296c6.701-4.48,15.561-9.446,22.201-9.68"/>
		<path style="fill:none;stroke:#263238;stroke-miterlimit:10;" d="M99.075,440.469c0,0,2.752-2.293,6.836-5.187"/>
		<path style="fill:none;stroke:#263238;stroke-miterlimit:10;" d="M137.464,433.267c-7.201,1.061-19.279,3.822-27.341,10.846"/>
		<path style="fill:none;stroke:#263238;stroke-miterlimit:10;" d="M143.495,432.628c0,0-1.174,0.05-3.128,0.265"/>
		<path style="fill:none;stroke:#263238;stroke-miterlimit:10;" d="M115.317,456.663c4.427,7.524,11.817,17.922,21.469,23.751"/>
		<path style="fill:none;stroke:#263238;stroke-miterlimit:10;" d="M110.614,447.641c0,0,1.12,2.604,3.229,6.435"/>
		<path style="fill:none;stroke:#263238;stroke-miterlimit:10;" d="M144.141,475.302c2.361,1.77,4.872,3.293,7.491,4.384"/>
		<path style="fill:none;stroke:#263238;stroke-miterlimit:10;" d="M125.23,453.115c0,0,6.341,11.28,15.762,19.614"/>
		<path style="fill:none;stroke:#263238;stroke-miterlimit:10;" d="M152.379,443.488c2.133,0.276,4.291,0.799,6.428,1.639"/>
		<path style="fill:none;stroke:#263238;stroke-miterlimit:10;" d="M126.298,449.899c0,0,10.477-6.82,22.613-6.655"/>
		<path style="fill:none;stroke:#263238;stroke-miterlimit:10;" d="M166.374,452.887c0,0-10.393,1.059-17.785,5.19"/>
		<path style="fill:none;stroke:#263238;stroke-miterlimit:10;" d="M146.406,460.884c0,0,4.929,8.057,16.913,15.131"/>
	</g>
</g>
<g id="Cherries_3">
	<g>
		<g>
			<g>
				<path style="fill:none;stroke:#263238;stroke-miterlimit:10;" d="M322.162,412.724c-6.292,13.183-5.247,28.79,1.174,39.304
					c6.431,10.507,16.86,21.292,35.088,23.433c18.228,2.142,35.026-7.454,42.282-16.757c7.256-9.303,5.059-20.628,1.181-27.237
					c-0.872-1.495-1.784-3.268-2.689-5.125c-1.241,0.46-2.218,0.75-2.962,0.925c-1.234,0.299-2.429-0.604-2.485-1.866
					c-0.011-0.146-0.013-0.301-0.016-0.455c-0.01-0.77,0.045-1.423,0.12-1.937c0.116-0.843,0.731-1.536,1.539-1.765
					c0.361-0.11,0.801-0.238,1.312-0.394c-1.936-4.436-3.368-8.166-3.368-8.166c1.21-6.105-0.153-13.443-6.35-18.798
					c-6.195-5.372-19.721-9.373-31.884-6.035C342.935,391.181,328.454,399.541,322.162,412.724z"/>
			</g>
			<g>
				<g>
					<path style="fill:none;stroke:#263238;stroke-miterlimit:10;" d="M395.396,421.246c-0.809,0.229-1.423,0.921-1.539,1.765
						c-0.076,0.514-0.131,1.167-0.12,1.937c0.002,0.154,0.004,0.308,0.016,0.455c0.057,1.262,1.251,2.164,2.485,1.866
						c0.743-0.175,1.72-0.465,2.962-0.925c0.94-0.353,2.052-0.8,3.321-1.361c6.246-2.785,21.47-8.688,37.517-21.888
						c16.046-13.199,24.475-27.611,28.949-32.568c4.457-4.96,10.277-12.94,11.176-14.973c0.897-2.015,0.888-3.068,1.848-4.496
						c0.952-1.437,0.475-4.877,0.475-4.877s-1.149-2.685-4.519-0.551c-3.378,2.124-6.864,13.965-6.864,13.965
						s-4.316,8.255-12.074,18.048c-7.747,9.785-20.117,22.53-33.224,30.742c-10.16,6.379-23.582,10.799-29.095,12.468
						C396.197,421.008,395.757,421.136,395.396,421.246z"/>
					<g>
						<path style="fill:none;stroke:#263238;stroke-miterlimit:10;" d="M480.65,350.033c0,0-0.53,0.544-1.611,0.022
							c-1.082-0.522-1.397-1.566-1.397-1.566l-1.063-0.103"/>
						<path style="fill:none;stroke:#263238;stroke-miterlimit:10;" d="M480.32,352.802c0,0-1.352-0.191-1.896-0.721
							c-0.544-0.53-0.544-0.53-0.544-0.53s-1.169-0.233-1.5-0.504c-0.331-0.271-0.331-0.271-0.331-0.271"/>
						<path style="fill:none;stroke:#263238;stroke-miterlimit:10;" d="M478.55,357.517c0,0-1.615,0.677-2.308-0.165
							c-0.693-0.842-1.073-1.833-1.073-1.833s-0.678,0.232-1.063-0.103"/>
						<path style="fill:none;stroke:#263238;stroke-miterlimit:10;" d="M477.977,354.839c0,0-0.861,0.274-1.394-0.374
							c-0.533-0.648-0.594-1.25-0.594-1.25s-0.484,0.072-1.04-0.34"/>
						<path style="fill:none;stroke:#263238;stroke-miterlimit:10;" d="M475.049,359.202c0,0-1.333,0.228-1.969-1.205"/>
						<path style="fill:none;stroke:#263238;stroke-miterlimit:10;" d="M476.721,359.782c0,0-0.442,0.255-0.803-0.317"/>
					</g>
				</g>
			</g>
		</g>
		<path style="fill:none;stroke:#263238;stroke-miterlimit:10;" d="M398.456,433.931c0,0-9.567-5.251-7.922-19.2"/>
	</g>
	<g>
		<g>
			<g>
				<path style="fill:none;stroke:#263238;stroke-miterlimit:10;" d="M95.658,399.555c-14.843,6.397-32.054,4.58-43.406-2.966
					c-11.344-7.556-22.826-19.544-24.421-39.789c-1.595-20.245,9.728-38.41,20.321-46.038c10.593-7.628,23.022-4.719,30.164-0.15
					c1.616,1.027,3.537,2.112,5.553,3.191c-0.562,1.353-0.923,2.421-1.149,3.236c-0.383,1.352,0.565,2.711,1.958,2.827
					c0.161,0.019,0.332,0.028,0.502,0.036c0.851,0.044,1.575,0.011,2.147-0.051c0.938-0.093,1.729-0.743,2.017-1.627
					c0.137-0.395,0.298-0.876,0.491-1.434c4.823,2.328,8.885,4.07,8.885,4.07c6.801-1.079,14.856,0.74,20.515,7.818
					c5.677,7.078,9.526,22.202,5.32,35.508C120.358,377.501,110.5,393.158,95.658,399.555z"/>
			</g>
			<g>
				<g>
					<path style="fill:none;stroke:#263238;stroke-miterlimit:10;" d="M89.342,318.224c-0.287,0.884-1.079,1.534-2.017,1.627
						c-0.572,0.062-1.296,0.095-2.147,0.051c-0.17-0.009-0.34-0.018-0.502-0.036c-1.393-0.116-2.34-1.475-1.958-2.827
						c0.226-0.815,0.587-1.883,1.149-3.236c0.43-1.025,0.972-2.235,1.645-3.614c3.345-6.787,10.517-23.37,25.791-40.551
						c15.275-17.181,31.565-25.889,37.237-30.626c5.673-4.718,14.743-10.814,17.029-11.721c2.266-0.906,3.429-0.852,5.049-1.852
						c1.63-0.992,5.413-0.318,5.413-0.318s2.919,1.384,0.417,5.02c-2.492,3.645-15.731,6.997-15.731,6.997
						s-9.311,4.422-20.467,12.583c-11.147,8.151-25.764,21.286-35.399,35.43c-7.484,10.962-12.94,25.615-15.019,31.64
						C89.64,317.348,89.479,317.829,89.342,318.224z"/>
					<g>
						<path style="fill:none;stroke:#263238;stroke-miterlimit:10;" d="M171.694,226.984c0,0-0.624,0.563-0.093,1.781
							c0.532,1.218,1.673,1.611,1.673,1.611l0.069,1.179"/>
						<path style="fill:none;stroke:#263238;stroke-miterlimit:10;" d="M168.619,227.231c0,0,0.154,1.503,0.717,2.127
							c0.563,0.624,0.563,0.624,0.563,0.624s0.208,1.303,0.493,1.68c0.285,0.378,0.285,0.378,0.285,0.378"/>
						<path style="fill:none;stroke:#263238;stroke-miterlimit:10;" d="M163.331,228.988c0,0-0.817,1.757,0.085,2.559
							c0.902,0.802,1.981,1.264,1.981,1.264s-0.285,0.74,0.069,1.179"/>
						<path style="fill:none;stroke:#263238;stroke-miterlimit:10;" d="M166.268,229.736c0,0-0.339,0.94,0.354,1.557
							c0.694,0.617,1.357,0.709,1.357,0.709s-0.1,0.532,0.331,1.164"/>
						<path style="fill:none;stroke:#263238;stroke-miterlimit:10;" d="M161.319,232.788c0,0-0.309,1.464,1.248,2.228"/>
						<path style="fill:none;stroke:#263238;stroke-miterlimit:10;" d="M160.749,230.915c0,0-0.301,0.478,0.316,0.902"/>
					</g>
				</g>
			</g>
		</g>
		<path style="fill:none;stroke:#263238;stroke-miterlimit:10;" d="M75.447,314.302c0,0,5.399,10.801,20.893,9.573"/>
	</g>
	<g>
		<g>
			<g>
				<path style="fill:none;stroke:#263238;stroke-miterlimit:10;" d="M139.556,61.348c0.51-12.131-5.38-23.721-13.719-29.665
					c-8.343-5.935-19.835-10.778-34.469-6.469c-14.634,4.309-24.346,17.124-26.859,26.603s2.861,17.421,7.982,21.208
					c1.154,0.859,2.43,1.916,3.728,3.041c0.799-0.757,1.451-1.297,1.963-1.674c0.846-0.631,2.054-0.331,2.509,0.616
					c0.056,0.108,0.108,0.225,0.16,0.342c0.259,0.585,0.43,1.103,0.54,1.52c0.186,0.683-0.058,1.413-0.601,1.851
					c-0.24,0.202-0.535,0.444-0.875,0.729c2.927,2.76,5.238,5.144,5.238,5.144c1.067,5.062,4.502,10.227,10.987,12.3
					c6.489,2.086,18.134,0.733,26.344-5.787C130.702,84.594,139.046,73.479,139.556,61.348z"/>
			</g>
			<g>
				<g>
					<path style="fill:none;stroke:#263238;stroke-miterlimit:10;" d="M80.789,78.722c0.543-0.439,0.787-1.169,0.601-1.851
						c-0.11-0.418-0.281-0.935-0.54-1.52c-0.052-0.117-0.104-0.234-0.16-0.342c-0.455-0.946-1.662-1.247-2.509-0.616
						c-0.511,0.377-1.164,0.917-1.963,1.674c-0.604,0.577-1.308,1.281-2.095,2.123c-3.866,4.167-13.58,13.646-21.542,28.971
						c-7.962,15.325-9.705,29.092-11.508,34.342c-1.79,5.245-3.636,13.245-3.66,15.092c-0.028,1.833,0.321,2.635,0.054,4.04
						c-0.259,1.409,1.228,3.883,1.228,3.883s1.754,1.678,3.635-1.053c1.889-2.726,0.692-12.915,0.692-12.915
						s0.607-7.719,3.343-17.736c2.731-10.008,8.03-23.786,15.372-34.34c5.686-8.191,14.506-15.948,18.176-19.022
						C80.254,79.166,80.549,78.924,80.789,78.722z"/>
					<g>
						<path style="fill:none;stroke:#263238;stroke-miterlimit:10;" d="M38.842,160.975c0,0,0.227-0.589,1.225-0.542
							c0.997,0.047,1.579,0.742,1.579,0.742l0.846-0.268"/>
						<path style="fill:none;stroke:#263238;stroke-miterlimit:10;" d="M38.19,158.75c0,0,1.096-0.295,1.685-0.068
							c0.589,0.228,0.589,0.228,0.589,0.228s0.97-0.203,1.312-0.105c0.341,0.099,0.341,0.099,0.341,0.099"/>
						<path style="fill:none;stroke:#263238;stroke-miterlimit:10;" d="M38.005,154.568c0,0,1.014-1.045,1.819-0.627
							c0.804,0.418,1.418,1.051,1.418,1.051s0.443-0.399,0.846-0.268"/>
						<path style="fill:none;stroke:#263238;stroke-miterlimit:10;" d="M39.318,156.429c0,0,0.569-0.49,1.188-0.169
							c0.619,0.321,0.861,0.762,0.861,0.762s0.346-0.213,0.906-0.079"/>
						<path style="fill:none;stroke:#263238;stroke-miterlimit:10;" d="M40.132,152.138c0,0,0.945-0.609,1.898,0.279"/>
						<path style="fill:none;stroke:#263238;stroke-miterlimit:10;" d="M38.665,152.24c0,0,0.255-0.339,0.718-0.02"/>
					</g>
				</g>
			</g>
		</g>
		<path style="fill:none;stroke:#263238;stroke-miterlimit:10;" d="M74.311,70.023c0,0,9.027,0.893,12.319,12.095"/>
	</g>
</g>
<g id="Leaf_2">
	<g>
		<path style="fill:#92E3A9;" d="M217.988,67.273c0,0,6.274,49.248,20.076,68.383c13.802,19.135,44.857,25.408,51.758,26.977
			s26.349,6.901,26.349,6.901s-10.352-9.097-15.057-33.25c-4.705-24.153-17.566-47.68-40.151-58.345
			C238.378,67.273,219.557,63.823,217.988,67.273z"/>
		<path style="fill:none;stroke:#263238;stroke-miterlimit:10;" d="M226.771,77.938c0,0-1.882,10.352,0.314,21.958"/>
		<path style="opacity:0.19;" d="M266.923,116.207c15.057,18.507,34.191,44.543,41.72,48.934l7.13,4.009
			c-1.933-1.937-10.499-11.517-14.658-32.868c-4.705-24.153-17.566-47.68-40.151-58.345c-22.585-10.665-41.406-14.116-42.974-10.665
			C217.988,67.273,251.866,97.7,266.923,116.207z"/>
		<path style="fill:none;stroke:#263238;stroke-miterlimit:10;" d="M217.988,67.273c0,0,33.878,30.427,48.934,48.934
			c15.057,18.507,34.191,44.543,41.72,48.934"/>
		<path style="fill:none;stroke:#263238;stroke-miterlimit:10;" d="M230.222,75.743c0,0,7.528-3.451,19.448,0.314"/>
		<path style="fill:none;stroke:#263238;stroke-miterlimit:10;" d="M236.809,88.29c0,0-4.705,25.408,2.196,42.974"/>
		<path style="fill:none;stroke:#263238;stroke-miterlimit:10;" d="M249.063,131.413c3.63,12.879,5.313,14.281,5.313,14.281"/>
		<path style="fill:none;stroke:#263238;stroke-miterlimit:10;" d="M248.415,99.582c0,0-3.719,13.162-0.501,27.461"/>
		<path style="fill:none;stroke:#263238;stroke-miterlimit:10;" d="M277.122,98.989c3.426,0.691,6.504,1.769,8.621,3.416"/>
		<path style="fill:none;stroke:#263238;stroke-miterlimit:10;" d="M253.434,98.328c0,0,9.669-1.018,18.88-0.055"/>
		<path style="fill:none;stroke:#263238;stroke-miterlimit:10;" d="M261.289,84.553c4.391,0.383,8.492,1.361,10.966,3.423"/>
		<path style="fill:none;stroke:#263238;stroke-miterlimit:10;" d="M242.142,85.467c0,0,5.725-0.954,12.372-1.101"/>
		<path style="fill:none;stroke:#263238;stroke-miterlimit:10;" d="M263.103,143.498c0.934,2.629,2.086,5.178,3.507,7.528"/>
		<path style="fill:none;stroke:#263238;stroke-miterlimit:10;" d="M259.394,112.757c0,0-1.04,12.822,2.161,25.588"/>
		<path style="fill:none;stroke:#263238;stroke-miterlimit:10;" d="M266.295,112.13c0,0,22.271,0,27.918,7.842"/>
		<path style="fill:none;stroke:#263238;stroke-miterlimit:10;" d="M270.373,124.991c0,0,1.568,24.467,9.41,32.309"/>
		<path style="fill:none;stroke:#263238;stroke-miterlimit:10;" d="M296.549,139.546c1.79,1.979,3.462,4.138,4.879,6.461"/>
		<path style="fill:none;stroke:#263238;stroke-miterlimit:10;" d="M277.901,125.304c0,0,7.735,3.867,15.057,10.624"/>
		<path style="fill:none;stroke:#263238;stroke-miterlimit:10;" d="M281.979,138.793c0,0,4.078,12.861,9.41,20.076"/>
		<path style="fill:none;stroke:#263238;stroke-miterlimit:10;" d="M217.988,67.273c0,0,6.274,49.248,20.076,68.383
			c13.802,19.135,44.857,25.408,51.758,26.977s26.349,6.901,26.349,6.901s-10.352-9.097-15.057-33.25
			c-4.705-24.153-17.566-47.68-40.151-58.345C238.378,67.273,219.557,63.823,217.988,67.273z"/>
	</g>
</g>
<g id="Cherry_2">
	<g>
		<g>
			<path style="fill:#92E3A9;" d="M388.08,204.152c-10.517-8.995-23.127-15.311-36.747-17.76
				c-6.488-1.167-13.686-1.593-20.966-0.402c-23.824,3.899-33.787,22.525-40.718,35.52c-6.931,12.995-12.995,19.493-21.225,30.755
				c-8.23,11.263-19.926,29.023-1.733,64.11c18.193,35.087,57.179,53.28,83.602,51.114c26.423-2.166,54.898-17.659,68.874-42.884
				c17.76-32.055,5.499-71.605-5.198-90.966C407.629,222.163,396.46,211.318,388.08,204.152z"/>
			<path style="opacity:0.23;fill:#FFFFFF;" d="M418.95,244.022c1.159,8.055,0.869,18.584-3.145,31.572
				c-10.452,33.814-33.814,41.806-46.724,35.043c-12.911-6.763-32.584,4.303-39.347,28.895c-2.547,9.26-5.179,17.473-5.963,24.411
				c9.375,2.979,18.525,4.201,26.523,3.545c26.423-2.166,54.899-17.659,68.874-42.884
				C434.168,297.53,427.751,265.109,418.95,244.022z"/>
			<path style="fill:#FFFFFF;" d="M298.234,211.707c0,0-2.98,1.703,0.851,7.237c3.831,5.534,7.663,8.088,4.257,16.177
				c-3.406,8.088-16.602,15.325-17.454,20.008c-0.851,4.683,0.851,9.791-5.534,10.642c-6.385,0.851-14.86-1.397-11.474-9.638
				c3.386-8.241,14.454-19.309,18.711-27.398C291.849,220.647,298.234,211.707,298.234,211.707z"/>
			<ellipse style="fill:#FFFFFF;" cx="335.565" cy="198.768" rx="18.193" ry="7.581"/>
			<path style="fill:#FFFFFF;" d="M348.127,227.574c0,0,4.332-7.797-1.733-14.295c-6.064-6.498-19.06-6.498-20.359,1.299
				s1.299,14.295-6.498,30.322c-7.797,16.027-13.862,22.525-18.193,25.557s4.765,9.53,12.129,7.364
				c7.364-2.166,21.659-28.589,28.156-36.386C348.127,233.638,348.127,227.574,348.127,227.574z"/>
		</g>
		<path style="fill:none;stroke:#263238;stroke-miterlimit:10;" d="M388.08,204.152c-10.517-8.995-23.127-15.311-36.747-17.76
			c-6.488-1.167-13.686-1.593-20.966-0.402c-23.824,3.899-33.787,22.525-40.718,35.52c-6.931,12.995-12.995,19.493-21.225,30.755
			c-8.23,11.263-19.926,29.023-1.733,64.11c18.193,35.087,57.179,53.28,83.602,51.114c26.423-2.166,54.898-17.659,68.874-42.884
			c17.76-32.055,5.499-71.605-5.198-90.966C407.629,222.163,396.46,211.318,388.08,204.152z"/>
		<g>
			<path style="fill:#92E3A9;stroke:#263238;stroke-miterlimit:10;" d="M208.626,69.288c0,0-2.763,39.033,19.344,91.537
				c22.107,52.504,48.705,71.503,55.268,83.938c6.563,12.435,8.635,16.235,11.053,15.544c2.418-0.691,8.981-5.872,6.218-10.708
				c-2.763-4.836-15.199-19.344-28.325-34.542c-13.126-15.199-33.851-46.287-42.487-66.321
				c-8.636-20.035-13.126-53.54-13.817-63.903c-0.691-10.363-1.036-19.344-1.036-19.344S211.044,64.797,208.626,69.288z"/>
		</g>
	</g>
</g>
<g id="Cherry_1">
	<g>
		<g>
			<path style="fill:#92E3A9;" d="M230.008,270.89c0,0-25.915,8.638-41.752,11.158s-37.073,14.037-42.472,38.153
				c-5.399,24.115,1.44,64.068,29.154,90.703c27.715,26.635,59.029,29.155,84.584,25.555c25.555-3.599,52.19-22.676,65.148-50.391
				c12.957-27.715,7.199-62.268-3.599-86.384c-10.798-24.115-35.273-40.672-52.19-43.552
				C251.964,253.253,238.287,260.812,230.008,270.89z"/>
			<path style="opacity:0.23;fill:#FFFFFF;" d="M259.523,436.458c25.555-3.599,52.19-22.676,65.148-50.39
				c9.381-20.066,8.948-43.714,3.898-64.392c-6.312,25.138-33.652,62.64-95.973,61.507c-49.08-0.892-76.125-20.233-87.277-30.78
				c3.11,19.953,12.278,41.834,29.62,58.5C202.654,437.538,233.968,440.058,259.523,436.458z"/>
			<path style="fill:#FFFFFF;" d="M218.491,276.649c0,0-14.757,5.399-27.715,9.718c-12.958,4.319-23.755,8.278-19.436,17.277
				c4.319,8.998,26.635-3.599,33.114-7.918c6.479-4.319,24.835-19.436,28.794-22.676c3.959-3.239,11.518-11.518,11.518-11.518
				l-14.757,9.358c0,0-19.837,16.633-23.19,20.146c-3.354,3.513-9.741,7.506-16.608,7.506s-3.992-5.589-1.437-7.506
				c2.555-1.916,27.147-11.977,29.862-12.935c2.715-0.958,7.665-4.631,4.95-3.673C220.871,275.386,218.491,276.649,218.491,276.649z
				"/>
			<path style="fill:#FFFFFF;" d="M249.445,280.248c0,0-33.474,20.516-44.632,29.155s-37.433,10.078-41.032,26.635
				c-3.599,16.557,3.599,20.156,23.036,11.878c19.436-8.278,35.993-34.193,41.392-39.233c5.399-5.039,19.796-14.037,23.036-21.956
				C254.484,278.808,254.124,276.649,249.445,280.248z"/>
		</g>
		<g>
			<g>
				<path style="fill:none;stroke:#263238;stroke-miterlimit:10;" d="M230.008,270.89c0,0-25.915,8.638-41.752,11.158
					s-37.073,14.037-42.472,38.153c-5.399,24.115,1.44,64.068,29.154,90.703c27.715,26.635,59.029,29.155,84.584,25.555
					c25.555-3.599,52.19-22.676,65.148-50.391c12.957-27.715,7.199-62.268-3.599-86.384c-10.798-24.115-35.273-40.672-52.19-43.552
					C251.964,253.253,238.287,260.812,230.008,270.89z"/>
				<path style="fill:#92E3A9;stroke:#263238;stroke-miterlimit:10;" d="M218.989,38.2c0,0-6.218,3.8-7.254,7.254
					c-1.036,3.454-2.763,4.836-4.836,8.981c-2.073,4.145-7.254,24.18-9.327,37.997c-2.072,13.817-14.162,46.632-14.162,90.155
					s10.708,75.993,14.508,89.81c1.792,6.518,3.431,10.653,4.662,13.203c1.152,2.385,4.205,3.137,6.323,1.548
					c0.241-0.181,0.494-0.377,0.759-0.589c1.257-1.006,2.24-1.966,2.981-2.78c1.196-1.314,1.488-3.209,0.788-4.841
					c-3.73-8.696-16.15-39.106-19.658-66.3c-4.145-32.124,0-69.085,5.527-94.646c5.527-25.561,13.126-43.523,13.126-43.523
					s14.508-21.416,13.471-29.706C224.861,36.473,218.989,38.2,218.989,38.2z"/>
				<g>
					<path style="fill:none;stroke:#263238;stroke-miterlimit:10;" d="M215.191,46.291c0,0-0.176,1.581,2.108,2.636
						s4.393,0.176,4.393,0.176l1.581,1.581"/>
					<path style="fill:none;stroke:#263238;stroke-miterlimit:10;" d="M211.15,50.507c0,0,2.108,1.933,3.69,2.108
						c1.581,0.176,1.581,0.176,1.581,0.176s1.933,1.581,2.811,1.757c0.879,0.176,0.879,0.176,0.879,0.176"/>
					<path style="fill:none;stroke:#263238;stroke-miterlimit:10;" d="M205.879,59.644c0,0,1.054,3.514,3.338,3.514
						s4.393-0.703,4.393-0.703s0.527,1.406,1.581,1.581"/>
					<path style="fill:none;stroke:#263238;stroke-miterlimit:10;" d="M210.974,57.008c0,0,0.703,1.757,2.46,1.757
						c1.757,0,2.811-0.703,2.811-0.703s0.527,0.879,1.933,1.23"/>
					<path style="fill:none;stroke:#263238;stroke-miterlimit:10;" d="M207.812,67.551c0,0,1.406,2.46,4.568,1.581"/>
					<path style="fill:none;stroke:#263238;stroke-miterlimit:10;" d="M204.649,65.618c0,0,0.176,1.054,1.581,0.879"/>
				</g>
			</g>
		</g>
	</g>
</g>
<g id="Leaf_1">
	<g>
		<g>
			<path style="fill:#92E3A9;" d="M200.736,71.037l-6.901,4.392c0,0-29.8,6.587-47.366,15.057s-58.658,34.819-69.324,58.031
				c-10.665,23.213-15.057,69.951-14.429,85.949c0.627,15.998-3.451,26.349-2.823,28.859c0.627,2.509,11.293-5.333,16.939-9.097
				c5.646-3.764,48.307-14.116,63.677-39.838c15.37-25.722,27.918-65.559,33.25-78.42c5.332-12.861,16.939-40.779,18.507-46.425
				c1.568-5.646,3.137-8.469,4.705-10.665c1.568-2.196,7.215-7.215,7.215-7.215S207.637,66.646,200.736,71.037z"/>
			<path style="opacity:0.19;" d="M200.736,71.037l-6.901,4.392c0,0-29.8,6.587-47.366,15.057
				c-17.566,8.469-58.658,34.819-69.324,58.031c-10.665,23.213-15.057,69.951-14.429,85.949c0.627,15.998-3.451,26.349-2.823,28.859
				c0.118,0.472,0.592,0.577,1.32,0.413l4.64-8.255c0-1.882,61.482-103.515,75.911-122.963
				c14.429-19.448,52.699-54.894,52.699-54.894L200.736,71.037z"/>
			<path style="fill:none;stroke:#263238;stroke-miterlimit:10;" d="M194.462,77.625c0,0-38.269,35.446-52.699,54.894
				C127.334,151.967,65.853,253.6,65.853,255.482"/>
			<path style="fill:none;stroke:#263238;stroke-miterlimit:10;" d="M162.524,97.606c-6.057-0.65-13.671-1.242-16.683-0.533
				c-5.333,1.255-14.743,4.705-14.743,4.705"/>
			<path style="fill:none;stroke:#263238;stroke-miterlimit:10;" d="M170.936,98.641c0,0-1.645-0.235-4.114-0.539"/>
			<path style="fill:none;stroke:#263238;stroke-miterlimit:10;" d="M154.442,145.458c0.496,9.546,0.496,21.88,0.496,21.88"/>
			<path style="fill:none;stroke:#263238;stroke-miterlimit:10;" d="M103.181,129.696c0,0,13.175-8.469,21.33-9.097
				c8.156-0.627,26.349-0.314,26.349-0.314s2.103,9.814,3.082,18.754"/>
			<path style="fill:none;stroke:#263238;stroke-miterlimit:10;" d="M169.87,129.283c-0.183,5.349-0.503,9.509-0.503,9.509"/>
			<path style="fill:none;stroke:#263238;stroke-miterlimit:10;" d="M166.231,105.856c0,0,3.764,8.469,3.764,16.625
				c0,0.709-0.005,1.419-0.013,2.123"/>
			<path style="fill:none;stroke:#263238;stroke-miterlimit:10;" d="M129.53,111.816c-9.724,3.137-13.175,3.764-13.175,3.764"/>
			<path style="fill:none;stroke:#263238;stroke-miterlimit:10;" d="M163.408,108.052c0,0-15.99,0.415-27.188,2.26"/>
			<path style="fill:none;stroke:#263238;stroke-miterlimit:10;" d="M161.212,89.858c0,0,9.097-2.196,15.998-0.941"/>
			<path style="fill:none;stroke:#263238;stroke-miterlimit:10;" d="M181.601,92.368c0,0,3.451,5.646,4.391,12.547"/>
			<path style="fill:none;stroke:#263238;stroke-miterlimit:10;" d="M139.882,138.165c0,0,10.665,33.878,7.215,58.345"/>
			<path style="fill:none;stroke:#263238;stroke-miterlimit:10;" d="M116.897,137.709c-12.37,1.108-27.798,3.724-35.988,9.866"/>
			<path style="fill:none;stroke:#263238;stroke-miterlimit:10;" d="M135.49,136.911c0,0-5.518-0.088-13.215,0.392"/>
			<path style="fill:none;stroke:#263238;stroke-miterlimit:10;" d="M82.486,165.407c9.662-5.692,26.817-14.065,43.28-13.44"/>
			<path style="fill:none;stroke:#263238;stroke-miterlimit:10;" d="M74.636,170.475c0,0,1.457-1.075,4.008-2.708"/>
			<path style="fill:none;stroke:#263238;stroke-miterlimit:10;" d="M131.676,172.042c1.968,13.305,3.163,32.923-2.774,49.249"/>
			<path style="fill:none;stroke:#263238;stroke-miterlimit:10;" d="M128.589,156.673c0,0,1.176,4.206,2.351,10.841"/>
			<path style="fill:none;stroke:#263238;stroke-miterlimit:10;" d="M115.138,222.276c-1.118,4.406-2.657,8.661-4.743,12.503"/>
			<path style="fill:none;stroke:#263238;stroke-miterlimit:10;" d="M116.355,177.376c0,0,3.306,19.66,0.069,38.767"/>
			<path style="fill:none;stroke:#263238;stroke-miterlimit:10;" d="M74.486,192.091c-2.291,2.395-4.373,5.109-6.124,8.184"/>
			<path style="fill:none;stroke:#263238;stroke-miterlimit:10;" d="M111.964,174.552c0,0-19.16,1.955-33.556,13.892"/>
			<path style="fill:none;stroke:#263238;stroke-miterlimit:10;" d="M66.794,216.899c0,0,13.488-8.783,26.349-10.979"/>
			<path style="fill:none;stroke:#263238;stroke-miterlimit:10;" d="M98.476,207.175c0,0,1.882,14.429-5.646,34.505"/>
		</g>
		<path style="fill:none;stroke:#263238;stroke-miterlimit:10;" d="M200.736,71.037l-6.901,4.392c0,0-29.8,6.587-47.366,15.057
			s-58.658,34.819-69.324,58.031c-10.665,23.213-15.057,69.951-14.429,85.949c0.627,15.998-3.451,26.349-2.823,28.859
			c0.627,2.509,11.293-5.333,16.939-9.097c5.646-3.764,48.307-14.116,63.677-39.838c15.37-25.722,27.918-65.559,33.25-78.42
			c5.332-12.861,16.939-40.779,18.507-46.425c1.568-5.646,3.137-8.469,4.705-10.665c1.568-2.196,7.215-7.215,7.215-7.215
			S207.637,66.646,200.736,71.037z"/>
	</g>
</g>
</svg>
